<svg width="512" height="512" viewBox="0 0 512 512" fill="none" xmlns="http://www.w3.org/2000/svg">
<path d="M435.053 68H399.707C398.496 67.9986 397.297 68.2435 396.182 68.7198C395.068 69.196 394.063 69.8937 393.226 70.7706C392.389 71.6475 391.74 72.6852 391.316 73.821C390.892 74.9567 390.703 76.1667 390.761 77.3776L393.743 139.119C376.404 118.674 354.822 102.255 330.498 91.0033C306.174 79.7519 279.692 73.9387 252.895 73.9683C151.009 73.9683 67.9255 157.173 68.0001 259.126C68.0746 361.243 150.83 444 252.895 444C298.679 444.065 342.847 427.067 376.789 396.321C377.696 395.509 378.428 394.52 378.94 393.416C379.451 392.311 379.733 391.114 379.766 389.896C379.8 388.679 379.585 387.468 379.134 386.337C378.684 385.206 378.008 384.178 377.147 383.318L351.799 357.953C350.194 356.348 348.041 355.413 345.774 355.336C343.506 355.26 341.295 356.049 339.587 357.542C319.557 375.176 294.632 386.281 268.135 389.378C241.637 392.475 214.825 387.416 191.274 374.876C167.723 362.336 148.551 342.911 136.314 319.189C124.078 295.468 119.358 268.578 122.783 242.103C126.209 215.629 137.617 190.828 155.488 171.008C173.359 151.187 196.843 137.288 222.809 131.164C248.775 125.039 275.99 126.98 300.826 136.728C325.662 146.476 346.938 163.567 361.819 185.724L286.124 182.091C284.914 182.033 283.704 182.222 282.569 182.646C281.434 183.07 280.397 183.72 279.521 184.557C278.645 185.395 277.947 186.401 277.472 187.516C276.996 188.631 276.751 189.831 276.752 191.043V226.412C276.752 228.787 277.695 231.064 279.373 232.743C281.05 234.422 283.326 235.365 285.699 235.365H435.053C437.426 235.365 439.702 234.422 441.38 232.743C443.057 231.064 444 228.787 444 226.412V76.9524C444 74.5781 443.057 72.301 441.38 70.6221C439.702 68.9432 437.426 68 435.053 68V68Z" fill="#525252"/>
</svg>
